<svg width="156" height="46" viewBox="0 0 156 46" fill="none" xmlns="http://www.w3.org/2000/svg">
<g clip-path="url(#clip0_1_279)" filter="url(#filter0_d_1_279)">
<path d="M38.0519 30.6138C36.0908 32.8582 33.6763 34.6666 30.9658 35.9208C28.2554 37.175 25.3099 37.847 22.321 37.8931C11.3165 37.8931 4 30.875 4 19.3562C4 7.48125 12.9755 0.35625 19.7787 0.35625C21.3 0.276769 22.8186 0.558358 24.209 1.17778C25.5994 1.7972 26.8218 2.7367 27.7755 3.91875L28.969 1.03313H37.121V15.6394H27.871C27.7158 12.2906 26.0568 9.14375 22.3687 9.14375C18.6806 9.14375 16.1981 13.7394 16.1981 19.3562C16.1981 24.4744 18.8477 29.07 23.7771 29.07C28.1335 29.07 31.559 24.5219 32.0245 24.0112L38.0519 30.6138ZM56.9577 0.985625V7.80188H53.7352V15.5919H63.5939V7.80188H60.5384V0.985625H77.4032V7.80188H74.4194V30.2575H77.4032V37.0737H60.5384V30.2575H63.5939V22.4556H53.7352V30.2575H56.9577V37.0737H40.1287V30.2575H42.9932V7.80188H40.1287V0.985625H56.9577ZM79.48 18.7981C79.48 7.695 86.9636 0 97.7055 0C110.429 0 116.349 7.58813 116.349 19.2019C116.349 30.8156 109.796 38 98.0636 38C87.2142 38 79.48 31.7537 79.48 18.8456V18.7981ZM103.351 19.1544C103.351 12.9081 101.644 7.90875 97.6458 7.90875C94.471 7.90875 92.2987 12.3975 92.2987 18.7981C92.2987 25.5669 94.6858 29.8419 98.0516 29.8419C101.417 29.8419 103.363 25.6144 103.363 19.2019L103.351 19.1544ZM152 30.6138C150.039 32.8582 147.624 34.6666 144.914 35.9208C142.203 37.175 139.258 37.847 136.269 37.8931C125.265 37.8931 117.948 30.875 117.948 19.3562C117.948 7.48125 126.924 0.35625 133.727 0.35625C135.249 0.276769 136.767 0.558358 138.157 1.17778C139.548 1.7972 140.77 2.7367 141.724 3.91875L142.917 1.03313H151.069V15.6394H141.771C141.616 12.2906 139.957 9.14375 136.269 9.14375C132.581 9.14375 130.098 13.7394 130.098 19.3562C130.098 24.4744 132.748 29.07 137.677 29.07C142.034 29.07 145.459 24.5219 145.925 24.0112L152 30.6138Z" fill="#141414"/>
</g>
<defs>
<filter id="filter0_d_1_279" x="0" y="0" width="156" height="46" filterUnits="userSpaceOnUse" color-interpolation-filters="sRGB">
<feFlood flood-opacity="0" result="BackgroundImageFix"/>
<feColorMatrix in="SourceAlpha" type="matrix" values="0 0 0 0 0 0 0 0 0 0 0 0 0 0 0 0 0 0 127 0" result="hardAlpha"/>
<feOffset dy="4"/>
<feGaussianBlur stdDeviation="2"/>
<feComposite in2="hardAlpha" operator="out"/>
<feColorMatrix type="matrix" values="0 0 0 0 0 0 0 0 0 0 0 0 0 0 0 0 0 0 0.25 0"/>
<feBlend mode="normal" in2="BackgroundImageFix" result="effect1_dropShadow_1_279"/>
<feBlend mode="normal" in="SourceGraphic" in2="effect1_dropShadow_1_279" result="shape"/>
</filter>
<clipPath id="clip0_1_279">
<rect width="148" height="38" fill="white" transform="translate(4)"/>
</clipPath>
</defs>
</svg>
