<svg width="150" height="46" viewBox="0 0 150 46" fill="none" xmlns="http://www.w3.org/2000/svg">
<g clip-path="url(#clip0_1_277)" filter="url(#filter0_d_1_277)">
<path d="M41.8524 4.83083C42.1865 5.19896 42.282 5.48396 42.1507 5.69771C42.0195 5.91146 41.7331 5.88771 41.3035 5.69771C40.8902 5.47991 40.4341 5.35429 39.967 5.32958C39.5594 5.33739 39.1636 5.19339 38.8573 4.92583C37.9929 4.06966 36.9558 3.40586 35.8144 2.97833C34.6335 2.52519 33.3902 2.25293 32.1272 2.17083C30.8597 2.07599 29.5854 2.13581 28.3326 2.34896C27.1683 2.53505 26.0333 2.87033 24.9556 3.34646C23.6814 3.93934 22.4802 4.67651 21.3758 5.54333C19.977 6.58615 18.6532 7.72497 17.4141 8.95146C16.0356 10.2768 14.7443 11.6888 13.5479 13.179C12.3367 14.7064 11.2361 16.3176 10.2544 18.0002C9.30141 19.5834 8.50228 21.2535 7.86785 22.9877C7.30417 24.5524 6.99011 26.1952 6.9371 27.8565C6.91249 28.258 7.02614 28.6559 7.25928 28.9846C7.47825 29.26 7.76639 29.473 8.09458 29.6021C8.45529 29.7318 8.83325 29.8078 9.21626 29.8277C9.57797 29.8461 9.94042 29.8461 10.3021 29.8277C11.5247 29.7019 12.727 29.4267 13.882 29.0084C15.0881 28.5849 16.2641 28.0811 17.4022 27.5002C18.5636 26.9065 19.6614 26.2771 20.6956 25.6121C21.7457 24.959 22.7003 24.3177 23.5595 23.7002C24.4186 23.0827 25.1823 22.5127 25.8386 22.0496C26.4949 21.5865 26.9723 21.2184 27.3064 21.0046C27.8048 20.6437 28.3618 20.3706 28.9531 20.1971C29.3777 20.1439 29.7852 19.998 30.1464 19.7696L31.6738 18.7959C32.0318 18.594 32.2465 18.5346 32.3062 18.6177C32.3659 18.7009 32.3062 18.8909 31.996 19.164C30.7191 20.5177 29.3827 21.8121 27.9865 23.0234C26.5904 24.2346 25.1704 25.3984 23.7265 26.5859C22.8479 27.2713 21.9359 27.9134 20.9939 28.5096C19.9085 29.2117 18.7851 29.854 17.6289 30.4334C16.4686 31.0069 15.2729 31.5066 14.049 31.9296C12.9644 32.3146 11.8235 32.5192 10.6721 32.5352C9.61463 32.5727 8.56125 32.3865 7.58147 31.989C6.77363 31.6501 6.06393 31.1152 5.5171 30.4334C4.97563 29.7701 4.57021 29.0075 4.32382 28.189C4.09361 27.3416 3.98513 26.466 4.00163 25.5884C4.05854 23.8338 4.40524 22.1007 5.02785 20.4584C5.69616 18.5998 6.55173 16.8135 7.58147 15.1265C8.67262 13.3306 9.90981 11.6268 11.2806 10.0321C12.635 8.4555 14.1069 6.98278 15.6838 5.62646C17.101 4.41009 18.6267 3.32498 20.2422 2.38458C21.5876 1.55209 23.052 0.927489 24.5857 0.532078C26.0589 0.227048 27.5562 0.0522008 29.0605 0.00957849C32.1791 -0.0902574 35.2731 0.59168 38.0578 1.99271C39.4772 2.71465 40.7608 3.67475 41.8524 4.83083ZM28.3207 22.7027C28.0842 22.9141 27.833 23.1086 27.5689 23.2846C27.4615 23.2846 27.4138 23.2846 27.4257 23.2252C27.4694 23.0634 27.5336 22.9078 27.6166 22.7621C27.7099 22.5968 27.7936 22.4263 27.8672 22.2515C28.0904 21.7043 28.2544 21.135 28.3565 20.5534C28.3961 20.1154 28.5711 19.7005 28.8576 19.3659L29.7287 18.3446C30.1225 17.8815 30.5879 17.3709 31.1368 16.8246C31.7202 16.2506 32.3335 15.7075 32.9744 15.1977C33.6317 14.678 34.3392 14.2246 35.0865 13.844C35.232 13.7672 35.392 13.7212 35.5563 13.7089C35.7207 13.6966 35.8857 13.7184 36.0412 13.7727C36.3854 13.8726 36.7088 14.0335 36.9958 14.2477C37.2563 14.4412 37.472 14.6883 37.6282 14.9721C37.6945 15.0727 37.7297 15.1903 37.7297 15.3106C37.7297 15.4307 37.6945 15.5484 37.6282 15.649C37.2254 16.3985 36.7791 17.1241 36.2918 17.8221C35.6951 18.6534 35.0985 19.5321 34.5138 20.4702C33.9291 21.4084 33.3921 22.3584 32.9028 23.3202C32.4654 24.1678 32.1328 25.0649 31.9124 25.9921C32.7431 25.5196 33.5193 24.9582 34.2274 24.3177C35.0388 23.5934 35.8383 22.7977 36.6139 21.9427C37.3896 21.0877 38.1771 20.209 39.0005 19.3184L41.1126 16.8484C41.1965 16.7244 41.3192 16.6315 41.4616 16.5843C41.6041 16.537 41.7583 16.538 41.9002 16.5871C42.2297 16.68 42.5297 16.8559 42.7713 17.0977C43.0249 17.3612 43.2165 17.6776 43.3321 18.024C43.3977 18.1737 43.4317 18.3355 43.4317 18.499C43.4317 18.6624 43.3977 18.8241 43.3321 18.974C42.6192 20.3267 42.0552 21.752 41.6496 23.2252C42.666 22.632 43.6426 21.9735 44.5731 21.254C45.5158 20.5296 46.2556 19.9715 46.8045 19.5796C46.9706 19.4654 47.1512 19.3736 47.3415 19.3065L47.9381 19.1284C48.1866 19.0537 48.4298 18.9625 48.666 18.8552C48.9444 18.7365 49.2786 18.5702 49.6684 18.3565C50.1815 18.0834 50.456 18.0002 50.4798 18.0834C50.5037 18.1665 50.3486 18.404 49.9786 18.7602C49.3104 19.4252 48.6064 20.1377 47.8427 20.8859C47.079 21.634 46.3153 22.3702 45.5277 23.0827C44.7402 23.7952 43.9645 24.4602 43.1412 25.0777C42.4756 25.6342 41.756 26.1235 40.9933 26.5384C40.8849 26.6036 40.7633 26.6438 40.6374 26.6562C40.5114 26.6685 40.3843 26.6526 40.2654 26.6096C39.9854 26.5331 39.7196 26.413 39.4778 26.2534C39.2279 26.0967 39.0094 25.8955 38.8334 25.6596C38.6811 25.4746 38.5931 25.2454 38.5828 25.0065C38.5351 24.5243 38.5431 24.0381 38.6067 23.5577C37.8191 24.3771 36.9958 25.149 36.1366 25.9327C35.2307 26.6968 34.2651 27.3877 33.2489 27.999C32.915 28.1582 32.5426 28.22 32.1749 28.1771C31.6962 28.1427 31.2234 28.051 30.7669 27.904C30.3338 27.7573 29.9299 27.5362 29.5736 27.2509C29.4092 27.1151 29.2777 26.9443 29.1889 26.7511C29.1 26.5577 29.0561 26.3471 29.0605 26.1346C29.0307 25.6158 29.0995 25.0961 29.2634 24.6027C29.4429 24.0256 29.6542 23.4587 29.8958 22.9046C30.1583 22.3109 30.4447 21.7171 30.7669 21.159L31.6499 19.5321C31.0771 20.0784 30.5163 20.6127 29.9674 21.159C29.4185 21.7052 28.8338 22.2515 28.3207 22.7027ZM51.3986 18.1309C50.6469 19.0096 49.9428 19.7696 49.3462 20.4346C48.9657 20.9188 48.4514 21.2819 47.8665 21.4796C47.6162 21.4953 47.3651 21.4953 47.1148 21.4796C46.8353 21.4953 46.5643 21.581 46.3272 21.729C45.9654 21.9014 45.6283 22.1211 45.3249 22.3821C45.0368 22.626 44.734 22.8521 44.418 23.059C44.2032 23.2015 44.1674 23.1421 44.2986 22.9046C44.4299 22.6671 44.9192 22.0259 45.7306 21.0046C47.0432 19.3737 48.3081 17.7904 49.5252 16.2546C50.658 14.8189 51.7134 13.3246 52.6874 11.7777C52.7597 11.6842 52.859 11.6148 52.972 11.5787C53.085 11.5427 53.2062 11.5417 53.3198 11.5758C53.6002 11.6386 53.8697 11.7426 54.1193 11.8846C54.4151 12.0236 54.6792 12.2216 54.895 12.4665C55.1097 12.7159 55.2052 12.9177 55.1694 13.0959C55.0143 13.5827 54.883 14.0577 54.7637 14.5209C54.6444 14.984 54.537 15.4709 54.4415 15.9459C55.3614 15.3097 56.4213 14.9025 57.5321 14.7584C58.1199 14.7014 58.7119 14.8126 59.2385 15.079C59.7892 15.3408 60.2962 15.6852 60.742 16.1002C61.152 16.4723 61.5021 16.9048 61.7802 17.3827C62.0045 17.7167 62.1248 18.1091 62.1262 18.5109C62.0779 19.476 61.7274 20.402 61.1239 21.159C60.5112 21.9324 59.7732 22.5986 58.9402 23.1302C59.9055 22.8203 60.8402 22.4228 61.7324 21.9427C62.4842 21.5152 63.1166 21.1352 63.6417 20.7552C64.1667 20.3752 64.6202 20.1021 64.9901 19.8527C65.3095 19.6118 65.6815 19.449 66.076 19.3777C66.2267 19.3634 66.3786 19.3634 66.5294 19.3777C66.662 19.3731 66.792 19.3408 66.9113 19.2827C67.0836 19.2015 67.2441 19.0977 67.3886 18.974L68.1642 18.3327C68.379 18.1309 68.5102 18.0596 68.5699 18.1309C68.6296 18.2021 68.6296 18.2734 68.5699 18.3327C67.885 19.4237 67.0849 20.4389 66.1834 21.3609C65.2337 22.356 64.1908 23.2586 63.0689 24.0565C61.9644 24.8419 60.7854 25.5181 59.5487 26.0752C58.387 26.5925 57.1507 26.9251 55.8854 27.0609C55.6081 27.0841 55.3288 27.056 55.062 26.9777C54.6571 26.8789 54.2587 26.756 53.8687 26.6096C53.4954 26.4725 53.1389 26.2931 52.8067 26.0752C52.5404 25.9156 52.3156 25.696 52.1504 25.434L51.9595 25.9327C51.6015 26.9302 51.2316 27.9515 50.8736 28.9846C50.5156 30.0177 50.1099 31.0627 49.6803 32.1077C49.2505 33.1348 48.7645 34.1378 48.2245 35.1121C47.7066 36.0637 47.0908 36.9592 46.3869 37.784C46.3038 37.8706 46.2 37.9346 46.0851 37.97C45.9702 38.0053 45.8481 38.0108 45.7306 37.9859C45.4361 37.924 45.1712 37.765 44.9788 37.5346C44.7178 37.238 44.5226 36.89 44.406 36.5134C44.2706 36.0429 44.2341 35.5497 44.2986 35.0646C44.6208 32.6403 45.3086 30.2783 46.3391 28.0584C47.4466 25.6037 48.6773 23.2058 50.0264 20.874C50.1696 20.6009 50.3366 20.3277 50.5037 20.0546C50.6607 19.7884 50.8321 19.5307 51.0168 19.2827L51.3986 18.1309ZM59.4413 17.0027C58.1649 17.0371 56.939 17.5066 55.9689 18.3327C54.9824 19.166 54.1187 20.1335 53.4034 21.2065C53.2522 21.8081 53.109 22.39 52.9738 22.9521C52.8306 23.5102 52.6755 24.1396 52.4965 24.6859L52.759 24.5552C53.4906 24.2321 54.1864 23.8341 54.8353 23.3677C55.6178 22.8431 56.3525 22.251 57.0309 21.5984C57.7205 20.9555 58.3115 20.2153 58.785 19.4015C59.2281 18.6801 59.4558 17.8481 59.4413 17.0027ZM68.4386 24.8284C69.5404 24.7897 70.6286 24.5731 71.6605 24.1871C72.7255 23.7946 73.7521 23.3058 74.7272 22.7265C75.7083 22.1403 76.6491 21.4897 77.5434 20.779C78.4383 20.0665 79.2497 19.4015 79.9299 18.7602C80.0003 18.6863 80.0855 18.6281 80.1801 18.5891C80.2748 18.5503 80.3764 18.5317 80.4788 18.5346C80.622 18.5346 80.5981 18.7484 80.3834 19.0809C80.0442 19.6421 79.7908 20.2504 79.6316 20.8859C79.5824 21.28 79.4347 21.6556 79.202 21.9784C78.8946 22.3474 78.568 22.7003 78.2235 23.0352C77.7849 23.4658 77.3142 23.8628 76.8155 24.2227C76.2904 24.6265 75.7296 25.0184 75.1568 25.4102C74.6142 25.7623 74.0338 26.053 73.4265 26.2771C72.899 26.4981 72.3516 26.6691 71.7918 26.7877C71.1968 26.9298 70.5893 27.0133 69.978 27.0371C69.5016 27.0179 69.0327 26.9133 68.5938 26.7284C68.0539 26.5115 67.5476 26.2196 67.0902 25.8615C66.6499 25.5102 66.2498 25.1121 65.897 24.674C65.5915 24.3451 65.3957 23.9304 65.3361 23.4865C65.1786 22.08 65.2716 20.657 65.6106 19.2827C65.9267 18.0317 66.4209 16.8321 67.0783 15.7202C67.7001 14.6627 68.5086 13.7252 69.4649 12.9534C70.4016 12.1886 71.4685 11.5974 72.6151 11.2077C73.0299 11.0726 73.4771 11.0726 73.8919 11.2077C74.38 11.3642 74.8454 11.5838 75.2761 11.8608C75.6818 12.1241 76.0476 12.444 76.362 12.8109C76.6115 13.0778 76.7629 13.421 76.7916 13.7846C76.7838 14.1993 76.6775 14.6062 76.4813 14.9721C76.2453 15.4519 75.9782 15.9161 75.6818 16.3615C75.3716 16.8365 75.0136 17.3352 74.6437 17.8459L73.5697 19.2946C73.2356 19.7221 72.997 19.8646 72.8418 19.7459C72.6867 19.6271 72.7106 19.3065 72.8418 18.7959C72.9612 18.4634 73.0447 18.2021 73.0924 18.0121C73.1356 17.8411 73.1597 17.6658 73.164 17.4896C73.1666 17.3439 73.1424 17.199 73.0924 17.0621C73.0428 16.9063 73.0029 16.7477 72.9731 16.5871C72.9511 16.3551 72.9755 16.121 73.0447 15.8984C73.1294 15.6395 73.2291 15.3857 73.343 15.1384C73.4623 14.8652 73.5817 14.5802 73.701 14.2715C73.8245 13.9649 73.9165 13.6465 73.9755 13.3215C73.0571 13.6935 72.2396 14.2752 71.5889 15.0196C70.8034 15.8851 70.1446 16.8566 69.6319 17.9052C69.0748 19.0046 68.6732 20.1755 68.4386 21.3846C68.1913 22.5193 68.1913 23.6936 68.4386 24.8284ZM81.8034 16.5159C82.5753 15.7575 83.4008 15.0551 84.2734 14.414C84.859 13.9762 85.5233 13.6538 86.2304 13.464C86.7823 13.3202 87.3668 13.3661 87.8891 13.5946C88.4913 13.8827 89.0307 14.2862 89.4761 14.7821L90.1682 13.749C90.2539 13.6409 90.3706 13.5616 90.5027 13.5212C90.6349 13.481 90.7763 13.4817 90.9081 13.5234C91.2688 13.5798 91.6117 13.718 91.9104 13.9271C92.2078 14.1172 92.4569 14.3733 92.6383 14.6752C92.7224 14.7819 92.7683 14.9136 92.7683 15.0493C92.7683 15.1849 92.7224 15.3166 92.6383 15.4234C92.3375 15.8393 92.0663 16.2759 91.8269 16.7296C91.4331 17.4184 91.0155 18.214 90.6336 19.1046C90.2518 19.9952 89.7983 20.874 89.4403 21.7527C89.1281 22.4346 88.8881 23.147 88.7244 23.8784C88.7041 23.9522 88.7041 24.0301 88.7244 24.104V24.3771C89.344 24.0229 89.9382 23.6261 90.5023 23.1896C91.1587 22.7146 91.8149 22.2277 92.4474 21.729L94.2492 20.304L95.538 19.259C95.7359 19.1059 95.9524 18.9783 96.1824 18.879C96.3572 18.8013 96.5365 18.7339 96.7193 18.6771L97.316 18.4634C97.5733 18.3671 97.8179 18.2394 98.0439 18.0834C98.2229 17.9646 98.3541 17.929 98.4257 17.9765C98.4973 18.024 98.4257 18.1427 98.3183 18.3565C97.125 19.924 95.9318 21.444 94.5476 22.9284C94.1776 23.3202 93.7719 23.7715 93.3543 24.2821C92.8998 24.788 92.4049 25.2566 91.8746 25.6834C91.3726 26.087 90.8138 26.4151 90.216 26.6571C89.6488 26.8823 89.0214 26.9073 88.438 26.7284C87.6022 26.611 86.8405 26.1876 86.302 25.5409C85.9703 24.9471 85.8887 24.2467 86.0753 23.5934C85.5115 24.4151 84.9061 25.2078 84.2615 25.9684C83.7677 26.5913 83.1704 27.1255 82.4955 27.5477C80.4311 28.7352 78.9156 28.3434 77.8536 26.2415C77.6176 25.7228 77.4956 25.1602 77.4956 24.5909C77.4769 23.8097 77.6065 23.0322 77.8775 22.299C78.2014 21.352 78.6381 20.447 79.1781 19.6034C79.927 18.4706 80.8083 17.4302 81.8034 16.504V16.5159ZM82.4358 23.9377C83.6131 22.6631 84.7428 21.3212 85.8247 19.9121C86.8987 18.4871 87.9249 17.0621 88.8914 15.6134C88.3776 15.5805 87.867 15.7137 87.4356 15.9934C86.8391 16.3482 86.2688 16.7451 85.7292 17.1809C85.1684 17.6202 84.6553 18.0477 84.1899 18.4752C83.8571 18.7522 83.5459 19.0538 83.2592 19.3777C82.8852 19.8052 82.4875 20.3396 82.0659 20.9809C81.6005 21.634 81.159 22.299 80.7533 22.9996C80.3726 23.6202 80.0453 24.2717 79.7748 24.9471C79.5429 25.3588 79.4789 25.8434 79.5958 26.3009C79.7748 26.574 80.0612 26.5027 80.4788 26.099L82.4358 23.9377ZM116.564 19.4609C116.723 19.3739 116.891 19.3023 117.065 19.2471L117.542 19.1165L118.127 18.9146C118.353 18.8196 118.64 18.689 118.974 18.5109C119.308 18.3327 119.594 18.1784 119.654 18.2615C119.714 18.3446 119.654 18.5346 119.284 18.8671C118.676 19.6152 117.96 20.4346 117.112 21.3134C116.265 22.1921 115.382 22.9877 114.475 23.7596C113.627 24.484 112.729 25.1505 111.79 25.7546C111.095 26.2359 110.307 26.5676 109.475 26.7284C108.507 26.8787 107.516 26.7595 106.612 26.384C105.846 26.1277 105.19 25.6214 104.75 24.9471C104.436 24.382 104.261 23.7515 104.237 23.1065C104.177 22.3991 104.177 21.6881 104.237 20.9809C104.269 20.6921 104.384 20.4185 104.568 20.1931C104.752 19.9677 104.997 19.8 105.275 19.7102C105.737 19.5002 106.187 19.2664 106.624 19.0096C107.135 18.7029 107.621 18.3574 108.079 17.9765C108.537 17.5676 108.956 17.1185 109.332 16.6346C109.722 16.2179 110.019 15.7243 110.203 15.1859C109.222 15.4895 108.31 15.9817 107.518 16.6346C106.697 17.262 105.924 17.9486 105.204 18.689C104.46 19.4448 103.755 20.2375 103.091 21.064C102.375 21.9546 101.719 22.7977 101.111 23.6171C100.502 24.4365 99.9889 25.149 99.5713 25.7902C99.1536 26.4315 98.8672 26.8234 98.7479 26.9777C98.6493 27.1471 98.5152 27.2931 98.3545 27.4058C98.1937 27.5187 98.0104 27.5954 97.8171 27.6309C97.4446 27.6942 97.0626 27.676 96.6978 27.5775C96.3332 27.4792 95.9943 27.3028 95.705 27.0609C95.5984 26.9883 95.5215 26.8799 95.4887 26.7556C95.4558 26.6312 95.469 26.4993 95.526 26.384L99.798 18.7009C98.9768 19.4844 98.1122 20.2218 97.2086 20.9096C96.2962 21.604 95.3397 22.2386 94.3447 22.8096C93.9748 23.0471 93.6168 23.2727 93.2469 23.4627C92.877 23.6527 92.6025 23.8071 92.4116 23.9021C92.2207 23.9971 92.1133 23.9971 92.1133 23.9021C92.1133 23.8071 92.2803 23.629 92.6144 23.2965C93.2143 22.7138 93.7688 22.0865 94.2731 21.4202C94.6042 20.9841 94.8732 20.5046 95.0726 19.9952C95.2947 19.4096 95.6796 18.8989 96.1824 18.5227L98.5689 16.3734C99.4758 15.5302 100.454 14.5565 101.504 13.464C102.598 12.2892 103.592 11.0261 104.476 9.68771C105.048 8.50021 105.669 7.31271 106.134 6.04208C106.6 4.77146 107.125 3.57208 107.614 2.38458C107.697 2.17083 107.876 2.09958 108.151 2.15896C108.471 2.23979 108.763 2.40371 108.998 2.63396C109.298 2.90244 109.556 3.21475 109.762 3.56021C110.005 3.90584 110.111 4.32879 110.06 4.74771C110.03 5.24221 109.929 5.72997 109.762 6.19646C109.606 6.67119 109.411 7.13198 109.177 7.57396C108.98 7.99064 108.744 8.38818 108.473 8.76146C108.234 9.08208 108.032 9.33146 107.876 9.50958C107.614 10.1152 107.375 10.6971 107.172 11.0771C106.97 11.4571 106.779 11.9202 106.564 12.2646C106.349 12.609 106.134 13.0721 105.931 13.4521C105.729 13.8321 105.454 14.3784 105.156 14.9484C105.888 14.495 106.654 14.098 107.447 13.7609C108.279 13.441 109.17 13.3032 110.06 13.3571C110.388 13.3746 110.706 13.4682 110.991 13.6302C111.373 13.8119 111.727 14.048 112.041 14.3309C112.355 14.6122 112.617 14.9458 112.817 15.3165C113.007 15.6561 113.062 16.0544 112.972 16.4327C112.79 17.0574 112.513 17.6503 112.148 18.1902C111.752 18.8058 111.288 19.3754 110.764 19.8884C110.227 20.387 109.639 20.8288 109.01 21.2065C108.426 21.6019 107.802 21.9362 107.149 22.204C107.084 22.6777 107.194 23.1589 107.459 23.5577C107.733 24.009 107.948 24.3771 108.103 24.6502C108.9 24.4814 109.662 24.1804 110.358 23.7596C111.194 23.2727 112.005 22.7265 112.817 22.1565C113.628 21.5865 114.344 21.0402 115.012 20.5296C115.494 20.1218 116.014 19.76 116.564 19.449V19.4609ZM124.152 18.4634C123.79 18.9842 123.39 19.4802 122.959 19.9477C122.468 20.4578 121.946 20.9375 121.396 21.3846C120.878 21.8211 120.328 22.2181 119.75 22.5721C119.288 22.8812 118.78 23.1177 118.246 23.2727C118.246 23.6064 118.27 23.9398 118.318 24.2702C118.349 24.5633 118.451 24.8446 118.616 25.0896C118.702 25.2643 118.839 25.4089 119.01 25.5043C119.18 25.5998 119.376 25.6415 119.571 25.624C119.988 25.5848 120.394 25.4637 120.764 25.2677C121.53 24.8788 122.264 24.4302 122.959 23.9259C123.725 23.387 124.463 22.8083 125.167 22.1921C125.894 21.5509 126.599 20.8977 127.279 20.2209C127.959 19.544 128.591 18.9027 129.164 18.2971C129.403 18.0596 129.582 17.9765 129.689 18.0477C129.796 18.119 129.785 18.2734 129.689 18.4871C129.403 19.1176 129.151 19.7638 128.937 20.4227C128.77 20.969 128.627 21.4202 128.508 21.7884C128.384 22.1485 128.207 22.4886 127.983 22.7977C127.653 23.2964 127.291 23.7724 126.897 24.2227C126.425 24.7722 125.915 25.288 125.369 25.7665C124.8 26.2737 124.167 26.7049 123.484 27.049C122.806 27.3961 122.071 27.6175 121.313 27.7021C120.504 27.7985 119.683 27.6924 118.926 27.3934C117.926 27.0676 117.078 26.3928 116.54 25.4934C116.064 24.6512 115.805 23.7045 115.788 22.7384C115.76 21.6987 115.914 20.6621 116.241 19.6746C116.54 18.6942 116.94 17.7471 117.435 16.8484C117.688 16.3923 117.975 15.9556 118.294 15.5421C118.662 15.0507 119.06 14.5827 119.487 14.1409C119.889 13.708 120.328 13.3107 120.8 12.9534C121.179 12.6585 121.626 12.4626 122.1 12.3834C122.654 12.3775 123.2 12.5124 123.687 12.7752C124.199 12.9958 124.674 13.292 125.095 13.654C125.409 13.9718 125.588 14.3965 125.596 14.8415C125.628 15.2749 125.559 15.7099 125.393 16.1121C125.217 16.5247 125.005 16.9219 124.761 17.2996L124.152 18.4634ZM119.153 20.0309C119.888 19.3196 120.562 18.549 121.17 17.7271C121.798 16.8924 122.312 15.9779 122.697 15.0077C122.38 15.2245 122.095 15.4843 121.85 15.7796C121.564 16.1097 121.3 16.4589 121.062 16.8246C120.812 17.1809 120.585 17.5371 120.382 17.8815C120.179 18.2259 120 18.5109 119.881 18.7246L119.153 20.0309ZM144.366 18.8434C144.856 18.4871 145.13 18.3327 145.19 18.4159C145.249 18.499 145.082 18.7484 144.689 19.1996C143.961 20.0784 143.209 20.9571 142.421 21.824C141.634 22.6909 140.846 23.5221 140.035 24.294C139.282 25.0257 138.485 25.7118 137.648 26.3484C136.922 26.909 136.117 27.3647 135.262 27.7021C135.023 28.338 134.599 28.8889 134.045 29.2843C133.49 29.6798 132.83 29.9021 132.147 29.9227C131.454 29.9453 130.763 29.8241 130.119 29.5665C129.423 29.3016 128.789 28.8975 128.257 28.379C128.088 28.1961 127.936 27.9972 127.804 27.7852C127.655 27.5506 127.541 27.2942 127.47 27.0252C127.388 26.7765 127.365 26.5127 127.398 26.2534C127.419 26.1246 127.466 26.0015 127.535 25.8913C127.604 25.781 127.696 25.6861 127.804 25.6121C127.966 25.4813 128.169 25.4099 128.376 25.4102C128.627 25.4102 128.902 25.4102 129.188 25.4102C129.474 25.4102 129.749 25.4102 130.011 25.5052L130.62 25.6121C131.049 25.6121 131.443 25.6121 131.813 25.6121C132.185 25.6148 132.557 25.5871 132.923 25.529C133.018 25.076 133.067 24.6143 133.066 24.1515V22.8809C133.066 22.0615 133.066 21.2421 133.066 20.4109C133.066 19.5796 132.947 18.7484 132.863 17.9052C131.768 19.0835 130.609 20.2013 129.391 21.254C128.126 22.3346 127.004 23.2727 126.002 24.0565C125.572 24.389 125.381 24.4365 125.405 24.2109C125.477 23.9047 125.62 23.6199 125.823 23.3796C126.032 23.1054 126.212 22.8109 126.36 22.5009C126.51 22.1959 126.641 21.8828 126.754 21.5627L127.04 20.7552C127.113 20.5439 127.24 20.3555 127.41 20.209C127.804 19.8171 128.46 19.0215 129.391 18.0002C130.505 16.6227 131.5 15.1527 132.362 13.6065C132.418 13.5053 132.505 13.4243 132.61 13.3753C132.715 13.3261 132.833 13.3115 132.947 13.3334C133.239 13.3733 133.521 13.4744 133.77 13.6302C134.045 13.7977 134.296 13.9969 134.522 14.224C134.701 14.3693 134.833 14.5631 134.904 14.7821C135.178 16.3852 135.429 18.0359 135.655 19.7577C135.88 21.4387 135.919 23.1388 135.775 24.8284C136.417 24.5035 137.017 24.1048 137.565 23.6409C138.185 23.1421 138.758 22.6315 139.379 22.1209C139.999 21.6102 140.572 21.1234 141.085 20.6721C141.544 20.2801 142.049 19.9451 142.588 19.6746C142.923 19.5321 143.221 19.4134 143.495 19.3184C143.81 19.2136 144.105 19.057 144.366 18.8552V18.8434Z" fill="#141414"/>
</g>
<defs>
<filter id="filter0_d_1_277" x="0" y="0" width="150" height="46" filterUnits="userSpaceOnUse" color-interpolation-filters="sRGB">
<feFlood flood-opacity="0" result="BackgroundImageFix"/>
<feColorMatrix in="SourceAlpha" type="matrix" values="0 0 0 0 0 0 0 0 0 0 0 0 0 0 0 0 0 0 127 0" result="hardAlpha"/>
<feOffset dy="4"/>
<feGaussianBlur stdDeviation="2"/>
<feComposite in2="hardAlpha" operator="out"/>
<feColorMatrix type="matrix" values="0 0 0 0 0 0 0 0 0 0 0 0 0 0 0 0 0 0 0.25 0"/>
<feBlend mode="normal" in2="BackgroundImageFix" result="effect1_dropShadow_1_277"/>
<feBlend mode="normal" in="SourceGraphic" in2="effect1_dropShadow_1_277" result="shape"/>
</filter>
<clipPath id="clip0_1_277">
<rect width="142" height="38" fill="white" transform="translate(4)"/>
</clipPath>
</defs>
</svg>
